<svg xmlns="http://www.w3.org/2000/svg" viewBox="0 0 1600 900" preserveAspectRatio="xMidYMax slice">
  
  <g fill="#0a1220">
    <rect x="0" y="680" width="200" height="140"></rect><rect x="220" y="690" width="160" height="130"></rect>
    <rect x="400" y="676" width="180" height="144"></rect><rect x="600" y="688" width="160" height="132"></rect>
    <rect x="780" y="680" width="200" height="140"></rect><rect x="1000" y="692" width="170" height="128"></rect>
    <rect x="1190" y="676" width="190" height="144"></rect><rect x="1400" y="684" width="200" height="136"></rect>
  </g>
  <g fill="#3a7ae2" opacity=".7">
    <rect x="30" y="720" width="3" height="3"></rect><rect x="48" y="720" width="3" height="3"></rect>
    <rect x="66" y="720" width="3" height="3"></rect><rect x="250" y="728" width="3" height="3"></rect>
    <rect x="280" y="728" width="3" height="3"></rect><rect x="430" y="716" width="3" height="3"></rect>
    <rect x="460" y="716" width="3" height="3"></rect><rect x="630" y="724" width="3" height="3"></rect>
    <rect x="810" y="718" width="3" height="3"></rect><rect x="850" y="718" width="3" height="3"></rect>
    <rect x="1030" y="728" width="3" height="3"></rect><rect x="1220" y="714" width="3" height="3"></rect>
    <rect x="1260" y="714" width="3" height="3"></rect><rect x="1430" y="722" width="3" height="3"></rect>
    <rect x="1470" y="722" width="3" height="3"></rect><rect x="1510" y="722" width="3" height="3"></rect>
  </g>
  <g fill="#2a4a7a" opacity=".55">
    <rect x="90" y="730" width="3" height="3"></rect><rect x="300" y="740" width="3" height="3"></rect>
    <rect x="480" y="726" width="3" height="3"></rect><rect x="700" y="736" width="3" height="3"></rect>
    <rect x="880" y="730" width="3" height="3"></rect><rect x="1080" y="740" width="3" height="3"></rect>
    <rect x="1300" y="726" width="3" height="3"></rect><rect x="1540" y="734" width="3" height="3"></rect>
  </g>
</svg>