<svg xmlns="http://www.w3.org/2000/svg" viewBox="0 0 1600 900" preserveAspectRatio="xMidYMid slice">
  <g fill="#c9d6ee">
    <circle cx="80" cy="120" r="1.1" opacity=".75"></circle><circle cx="180" cy="60" r="0.8" opacity=".5"></circle>
    <circle cx="310" cy="210" r="1.4" opacity=".88"></circle><circle cx="420" cy="80" r="0.9" opacity=".6"></circle>
    <circle cx="540" cy="170" r="1.1" opacity=".72"></circle><circle cx="650" cy="40" r="0.7" opacity=".55"></circle>
    <circle cx="780" cy="140" r="1.6" opacity=".95"></circle><circle cx="910" cy="220" r="0.9" opacity=".55"></circle>
    <circle cx="1030" cy="90" r="1.4" opacity=".82"></circle><circle cx="1160" cy="180" r="1" opacity=".7"></circle>
    <circle cx="1290" cy="60" r="0.8" opacity=".5"></circle><circle cx="1410" cy="220" r="1.2" opacity=".78"></circle>
    <circle cx="1520" cy="120" r="1" opacity=".65"></circle><circle cx="40" cy="340" r="0.9" opacity=".6"></circle>
    <circle cx="260" cy="380" r="1.1" opacity=".72"></circle><circle cx="470" cy="320" r="0.7" opacity=".5"></circle>
    <circle cx="720" cy="330" r="1" opacity=".65"></circle><circle cx="970" cy="380" r="1.3" opacity=".8"></circle>
    <circle cx="1220" cy="330" r="0.8" opacity=".55"></circle><circle cx="1470" cy="390" r="1.1" opacity=".7"></circle>
    <circle cx="140" cy="500" r="0.9" opacity=".58"></circle><circle cx="400" cy="540" r="1.2" opacity=".75"></circle>
    <circle cx="680" cy="490" r="0.7" opacity=".48"></circle><circle cx="940" cy="520" r="1.1" opacity=".7"></circle>
    <circle cx="1180" cy="490" r="1.4" opacity=".85"></circle><circle cx="1440" cy="540" r="0.8" opacity=".55"></circle>
  </g>
</svg>