<svg xmlns="http://www.w3.org/2000/svg" viewBox="0 0 1600 900" preserveAspectRatio="xMidYMid meet">
  <defs>
    <filter id="gl" x="-50%" y="-50%" width="200%" height="200%">
      <feGaussianBlur stdDeviation="3"></feGaussianBlur>
    </filter>
  </defs>
  <g opacity=".9">
    <rect x="340" y="180" width="520" height="340" rx="6" fill="#05090f" stroke="#2a4a7a" stroke-width="1.5"></rect>
    <rect x="340" y="180" width="520" height="26" fill="#0a1220"></rect>
    <circle cx="356" cy="193" r="3" fill="#3a5a82" opacity=".6"></circle>
    <circle cx="368" cy="193" r="3" fill="#3a5a82" opacity=".6"></circle>
    <circle cx="380" cy="193" r="3" fill="#3a5a82" opacity=".6"></circle>
    <g fill="#7aa8e0" filter="url(#gl)">
      <rect x="360" y="230" width="16" height="8"></rect><rect x="380" y="230" width="10" height="8"></rect>
      <rect x="394" y="230" width="28" height="8"></rect><rect x="426" y="230" width="14" height="8"></rect>
      <rect x="444" y="230" width="8" height="8"></rect>
    </g>
    <g fill="#4a7ac0" opacity=".85">
      <rect x="360" y="252" width="180" height="3"></rect><rect x="360" y="266" width="320" height="3"></rect>
      <rect x="360" y="280" width="90" height="3"></rect><rect x="360" y="300" width="240" height="3"></rect>
      <rect x="360" y="314" width="140" height="3"></rect><rect x="360" y="328" width="300" height="3"></rect>
      <rect x="360" y="342" width="180" height="3"></rect><rect x="360" y="362" width="260" height="3"></rect>
      <rect x="360" y="376" width="100" height="3"></rect><rect x="360" y="390" width="220" height="3"></rect>
      <rect x="360" y="410" width="160" height="3"></rect><rect x="360" y="424" width="300" height="3"></rect>
      <rect x="360" y="438" width="200" height="3"></rect><rect x="360" y="452" width="80" height="3"></rect>
      <rect x="360" y="472" width="140" height="3"></rect><rect x="360" y="486" width="260" height="3"></rect>
    </g>
    <rect x="360" y="500" width="7" height="9" fill="#7aa8e0"></rect>
  </g>
  
  <g fill="#0a1220" opacity=".95">
    <ellipse cx="800" cy="680" rx="70" ry="100"></ellipse>
    <ellipse cx="800" cy="590" rx="42" ry="48"></ellipse>
  </g>
</svg>