<svg xmlns="http://www.w3.org/2000/svg" viewBox="0 0 1600 900" preserveAspectRatio="xMidYMid slice">
  
  <defs>
    <radialGradient id="iris" cx=".5" cy=".5" r=".5">
      <stop offset="0" stop-color="#0a0a0a"></stop>
      <stop offset=".4" stop-color="#1a1a1a"></stop>
      <stop offset=".7" stop-color="#3a4a4a"></stop>
      <stop offset="1" stop-color="#0a0a0a"></stop>
    </radialGradient>
    <linearGradient id="hudOverlay" x1="0" y1="0" x2="1" y2="0">
      <stop offset="0" stop-color="#0fffd0" stop-opacity="0"></stop>
      <stop offset=".5" stop-color="#0fffd0" stop-opacity=".22"></stop>
      <stop offset="1" stop-color="#0fffd0" stop-opacity=".05"></stop>
    </linearGradient>
    <clipPath id="rightSide">
      <rect x="800" y="0" width="800" height="900"></rect>
    </clipPath>
  </defs>

  
  <rect width="1600" height="900" fill="#08070a"></rect>
  <ellipse cx="800" cy="450" rx="900" ry="380" fill="#1a1410"></ellipse>

  
  <ellipse cx="800" cy="280" rx="800" ry="160" fill="#0e0a08"></ellipse>
  
  <ellipse cx="800" cy="780" rx="700" ry="160" fill="#0a0608"></ellipse>

  
  
  <g transform="translate(560, 440)">
    
    <path d="M -160 0 Q 0 -65 160 0 Q 0 65 -160 0 Z" fill="#ddd0c4"></path>
    
    <circle cx="0" cy="0" r="55" fill="url(#iris)"></circle>
    
    <circle cx="0" cy="0" r="22" fill="#000"></circle>
    
    <circle cx="-12" cy="-12" r="8" fill="#ffffff" opacity=".85"></circle>
    
    <path d="M -160 0 Q 0 -65 160 0 L 160 -8 Q 0 -73 -160 -8 Z" fill="#0a0608" opacity=".55"></path>
  </g>

  
  <g transform="translate(1040, 440)">
    <path d="M -160 0 Q 0 -65 160 0 Q 0 65 -160 0 Z" fill="#ddd0c4"></path>
    <circle cx="0" cy="0" r="55" fill="url(#iris)"></circle>
    <circle cx="0" cy="0" r="22" fill="#000"></circle>
    <circle cx="-12" cy="-12" r="8" fill="#ffffff" opacity=".85"></circle>
    <path d="M -160 0 Q 0 -65 160 0 L 160 -8 Q 0 -73 -160 -8 Z" fill="#0a0608" opacity=".55"></path>
  </g>

  
  <g clip-path="url(#rightSide)" opacity=".88">
    
    <rect x="800" y="0" width="800" height="900" fill="url(#hudOverlay)"></rect>
    
    <g stroke="#0fffd0" stroke-width=".5" opacity=".35">
      <line x1="900" y1="0" x2="900" y2="900"></line>
      <line x1="1000" y1="0" x2="1000" y2="900"></line>
      <line x1="1100" y1="0" x2="1100" y2="900"></line>
      <line x1="1200" y1="0" x2="1200" y2="900"></line>
      <line x1="1300" y1="0" x2="1300" y2="900"></line>
      <line x1="1400" y1="0" x2="1400" y2="900"></line>
      <line x1="1500" y1="0" x2="1500" y2="900"></line>
    </g>
    
    <g stroke="#0fffd0" stroke-width=".5" opacity=".35">
      <line x1="800" y1="120" x2="1600" y2="120"></line>
      <line x1="800" y1="220" x2="1600" y2="220"></line>
      <line x1="800" y1="320" x2="1600" y2="320"></line>
      <line x1="800" y1="540" x2="1600" y2="540"></line>
      <line x1="800" y1="640" x2="1600" y2="640"></line>
      <line x1="800" y1="740" x2="1600" y2="740"></line>
    </g>

    
    <g transform="translate(1040,440)" stroke="#0fffd0" fill="none">
      <circle cx="0" cy="0" r="120" stroke-width="1.2" opacity=".75"></circle>
      <circle cx="0" cy="0" r="80" stroke-width=".6" opacity=".5"></circle>
      <line x1="-160" y1="0" x2="-90" y2="0" stroke-width="1"></line>
      <line x1="90" y1="0" x2="160" y2="0" stroke-width="1"></line>
      <line x1="0" y1="-160" x2="0" y2="-90" stroke-width="1"></line>
      <line x1="0" y1="90" x2="0" y2="160" stroke-width="1"></line>
      
      <g stroke-width=".8" opacity=".7">
        <path d="M -120 -120 L -120 -100 M -120 -120 L -100 -120"></path>
        <path d="M 120 -120 L 120 -100 M 120 -120 L 100 -120"></path>
        <path d="M -120 120 L -120 100 M -120 120 L -100 120"></path>
        <path d="M 120 120 L 120 100 M 120 120 L 100 120"></path>
      </g>
    </g>

    
    <g font-family="ui-monospace, Menlo, monospace" font-size="13" fill="#0fffd0" opacity=".85">
      <text x="1180" y="280">SUBJECT · LANCE / A</text>
      <text x="1180" y="300">CRYO REVIVAL · 00:14:22</text>
      <text x="1180" y="320">PUPIL · 4.2 mm</text>
      <text x="1180" y="340">VITALS · NOMINAL</text>
      <text x="860" y="600">STATUS</text>
      <text x="860" y="620" fill="#aaffe8">AWAKE</text>
      <text x="860" y="700">FRAME 042 / 087</text>
    </g>
  </g>
</svg>