<svg xmlns="http://www.w3.org/2000/svg" viewBox="0 0 1600 900" preserveAspectRatio="xMidYMid slice">
  
  <g stroke="#e24a4a" stroke-width="1.2" fill="none" opacity=".55">
    <path d="M 800 0 L 804 80 L 792 160 L 810 240 L 790 340 L 812 440 L 788 540 L 816 640 L 790 760 L 806 900"></path>
    <path d="M 804 80 L 760 120 L 740 180" opacity=".7"></path>
    <path d="M 792 160 L 840 200 L 870 260" opacity=".65"></path>
    <path d="M 790 340 L 720 400 L 690 470" opacity=".6"></path>
    <path d="M 812 440 L 880 490 L 910 560" opacity=".55"></path>
    <path d="M 788 540 L 710 610 L 680 680" opacity=".5"></path>
    <path d="M 816 640 L 890 700 L 930 780" opacity=".5"></path>
  </g>
  <g stroke="#4a7ac0" stroke-width="0.8" fill="none" opacity=".35">
    <path d="M 800 40 L 770 100 L 750 180"></path>
    <path d="M 800 300 L 830 360 L 850 440"></path>
    <path d="M 800 600 L 770 680 L 760 780"></path>
  </g>
</svg>