<svg xmlns="http://www.w3.org/2000/svg" viewBox="0 0 1600 900" preserveAspectRatio="xMidYMid meet">
  <defs>
    <radialGradient id="hl" cx="50%" cy="50%" r="50%">
      <stop offset="0%" stop-color="#4a7ac0" stop-opacity=".6"></stop>
      <stop offset="100%" stop-color="#0f1a2e" stop-opacity="0"></stop>
    </radialGradient>
  </defs>
  <circle cx="580" cy="420" r="280" fill="url(#hl)"></circle>
  
  <g fill="#a8c4ec">
    <circle cx="500" cy="280" r="1.6"></circle><circle cx="530" cy="270" r="1.5"></circle>
    <circle cx="560" cy="265" r="1.7"></circle><circle cx="590" cy="262" r="1.5"></circle>
    <circle cx="620" cy="265" r="1.4"></circle><circle cx="648" cy="272" r="1.3"></circle>
    <circle cx="668" cy="285" r="1.4"></circle><circle cx="478" cy="310" r="1.5"></circle>
    <circle cx="472" cy="350" r="1.4"></circle><circle cx="470" cy="390" r="1.5"></circle>
    <circle cx="474" cy="430" r="1.4"></circle><circle cx="484" cy="470" r="1.5"></circle>
    <circle cx="498" cy="510" r="1.4"></circle><circle cx="516" cy="545" r="1.5"></circle>
    <circle cx="540" cy="572" r="1.4"></circle><circle cx="572" cy="585" r="1.5"></circle>
    <circle cx="605" cy="585" r="1.6"></circle><circle cx="635" cy="575" r="1.4"></circle>
    <circle cx="660" cy="558" r="1.3"></circle><circle cx="678" cy="530" r="1.4"></circle>
    
    <circle cx="555" cy="510" r="1"></circle><circle cx="575" cy="515" r="1"></circle>
    <circle cx="595" cy="518" r="1"></circle><circle cx="615" cy="515" r="1"></circle>
    <circle cx="630" cy="508" r="1"></circle>
    
    <circle cx="560" cy="390" r="3"></circle>
  </g>
</svg>