<svg xmlns="http://www.w3.org/2000/svg" viewBox="0 0 1600 900" preserveAspectRatio="xMidYMid meet">
  <defs>
    <radialGradient id="hr" cx="50%" cy="50%" r="50%">
      <stop offset="0%" stop-color="#e24a4a" stop-opacity=".55"></stop>
      <stop offset="100%" stop-color="#1a0818" stop-opacity="0"></stop>
    </radialGradient>
  </defs>
  <circle cx="1040" cy="430" r="280" fill="url(#hr)"></circle>
  
  <g fill="#ee9090">
    <circle cx="980" cy="290" r="1.5"></circle><circle cx="1010" cy="278" r="1.6"></circle>
    <circle cx="1042" cy="272" r="1.4"></circle><circle cx="1076" cy="272" r="1.5"></circle>
    <circle cx="1108" cy="278" r="1.4"></circle><circle cx="1136" cy="290" r="1.5"></circle>
    <circle cx="1158" cy="308" r="1.4"></circle><circle cx="1170" cy="336" r="1.5"></circle>
    <circle cx="1176" cy="370" r="1.4"></circle><circle cx="1178" cy="408" r="1.5"></circle>
    <circle cx="1172" cy="450" r="1.4"></circle><circle cx="1160" cy="492" r="1.5"></circle>
    <circle cx="1142" cy="530" r="1.4"></circle><circle cx="1118" cy="562" r="1.5"></circle>
    <circle cx="1090" cy="585" r="1.4"></circle><circle cx="1056" cy="598" r="1.5"></circle>
    <circle cx="1020" cy="596" r="1.4"></circle><circle cx="990" cy="585" r="1.5"></circle>
    <circle cx="964" cy="565" r="1.4"></circle><circle cx="944" cy="540" r="1.4"></circle>
    <circle cx="930" cy="510" r="1.3"></circle><circle cx="922" cy="478" r="1.4"></circle>
    
    <circle cx="1000" cy="520" r="1"></circle><circle cx="1022" cy="522" r="1"></circle>
    <circle cx="1046" cy="523" r="1"></circle><circle cx="1070" cy="522" r="1"></circle>
    <circle cx="1092" cy="520" r="1"></circle>
    
    <circle cx="1070" cy="398" r="3"></circle>
  </g>
</svg>