<svg xmlns="http://www.w3.org/2000/svg" viewBox="0 0 1600 300" preserveAspectRatio="xMidYMax slice">
  
  <rect x="0" y="60" width="1600" height="240" fill="#040810"></rect>
  <g stroke="#16243a" stroke-width="1" opacity=".85">
    <line x1="0" y1="90" x2="1600" y2="90"></line>
    <line x1="0" y1="140" x2="1600" y2="140"></line>
    <line x1="0" y1="200" x2="1600" y2="200"></line>
    <line x1="0" y1="270" x2="1600" y2="270"></line>
  </g>
  <g stroke="#16243a" stroke-width="1" opacity=".65">
    <line x1="40" y1="60" x2="40" y2="300"></line>
    <line x1="120" y1="60" x2="120" y2="300"></line>
    <line x1="200" y1="60" x2="200" y2="300"></line>
    <line x1="280" y1="60" x2="280" y2="300"></line>
    <line x1="360" y1="60" x2="360" y2="300"></line>
    <line x1="440" y1="60" x2="440" y2="300"></line>
    <line x1="520" y1="60" x2="520" y2="300"></line>
    <line x1="600" y1="60" x2="600" y2="300"></line>
    <line x1="680" y1="60" x2="680" y2="300"></line>
    <line x1="760" y1="60" x2="760" y2="300"></line>
    <line x1="840" y1="60" x2="840" y2="300"></line>
    <line x1="920" y1="60" x2="920" y2="300"></line>
    <line x1="1000" y1="60" x2="1000" y2="300"></line>
    <line x1="1080" y1="60" x2="1080" y2="300"></line>
    <line x1="1160" y1="60" x2="1160" y2="300"></line>
    <line x1="1240" y1="60" x2="1240" y2="300"></line>
    <line x1="1320" y1="60" x2="1320" y2="300"></line>
    <line x1="1400" y1="60" x2="1400" y2="300"></line>
    <line x1="1480" y1="60" x2="1480" y2="300"></line>
    <line x1="1560" y1="60" x2="1560" y2="300"></line>
  </g>
  
  <rect x="0" y="48" width="1600" height="6" fill="#22334d"></rect>
  <rect x="0" y="60" width="1600" height="2" fill="#3a5278"></rect>
</svg>