<svg xmlns="http://www.w3.org/2000/svg" viewBox="0 0 1600 900" preserveAspectRatio="xMidYMid slice">
  <defs>
    <linearGradient id="floorFade" x1="0" y1="0" x2="0" y2="1">
      <stop offset="0" stop-color="#0fffd0" stop-opacity="0"></stop>
      <stop offset=".4" stop-color="#0fffd0" stop-opacity=".6"></stop>
      <stop offset="1" stop-color="#0fffd0" stop-opacity=".95"></stop>
    </linearGradient>
    <linearGradient id="ceilFade" x1="0" y1="0" x2="0" y2="1">
      <stop offset="0" stop-color="#0fffd0" stop-opacity=".95"></stop>
      <stop offset=".6" stop-color="#0fffd0" stop-opacity=".6"></stop>
      <stop offset="1" stop-color="#0fffd0" stop-opacity="0"></stop>
    </linearGradient>
    <mask id="floorMask"><rect width="1600" height="900" fill="url(#floorFade)"></rect></mask>
    <mask id="ceilMask"><rect width="1600" height="900" fill="url(#ceilFade)"></rect></mask>
  </defs>
  <g stroke="#0fffd0" stroke-width="0.9" fill="none" mask="url(#floorMask)"><line x1="-740.0" y1="900.0" x2="340.0" y2="478.1"></line><line x1="-660.0" y1="900.0" x2="360.0" y2="478.1"></line><line x1="-580.0" y1="900.0" x2="380.0" y2="478.1"></line><line x1="-500.0" y1="900.0" x2="400.0" y2="478.1"></line><line x1="-420.0" y1="900.0" x2="420.0" y2="478.1"></line><line x1="-340.0" y1="900.0" x2="440.0" y2="478.1"></line><line x1="-260.0" y1="900.0" x2="460.0" y2="478.1"></line><line x1="-180.0" y1="900.0" x2="480.0" y2="478.1"></line><line x1="-100.0" y1="900.0" x2="500.0" y2="478.1"></line><line x1="-20.0" y1="900.0" x2="520.0" y2="478.1"></line><line x1="60.0" y1="900.0" x2="540.0" y2="478.1"></line><line x1="140.0" y1="900.0" x2="560.0" y2="478.1"></line><line x1="220.0" y1="900.0" x2="580.0" y2="478.1"></line><line x1="300.0" y1="900.0" x2="600.0" y2="478.1"></line><line x1="380.0" y1="900.0" x2="620.0" y2="478.1"></line><line x1="460.0" y1="900.0" x2="640.0" y2="478.1"></line><line x1="540.0" y1="900.0" x2="660.0" y2="478.1"></line><line x1="620.0" y1="900.0" x2="680.0" y2="478.1"></line><line x1="700.0" y1="900.0" x2="700.0" y2="478.1"></line><line x1="780.0" y1="900.0" x2="720.0" y2="478.1"></line><line x1="860.0" y1="900.0" x2="740.0" y2="478.1"></line><line x1="940.0" y1="900.0" x2="760.0" y2="478.1"></line><line x1="1020.0" y1="900.0" x2="780.0" y2="478.1"></line><line x1="1100.0" y1="900.0" x2="800.0" y2="478.1"></line><line x1="1180.0" y1="900.0" x2="820.0" y2="478.1"></line><line x1="1260.0" y1="900.0" x2="840.0" y2="478.1"></line><line x1="1340.0" y1="900.0" x2="860.0" y2="478.1"></line><line x1="1420.0" y1="900.0" x2="880.0" y2="478.1"></line><line x1="1500.0" y1="900.0" x2="900.0" y2="478.1"></line><line x1="1580.0" y1="900.0" x2="920.0" y2="478.1"></line><line x1="1660.0" y1="900.0" x2="940.0" y2="478.1"></line><line x1="1740.0" y1="900.0" x2="960.0" y2="478.1"></line><line x1="1820.0" y1="900.0" x2="980.0" y2="478.1"></line><line x1="1900.0" y1="900.0" x2="1000.0" y2="478.1"></line><line x1="1980.0" y1="900.0" x2="1020.0" y2="478.1"></line><line x1="2060.0" y1="900.0" x2="1040.0" y2="478.1"></line><line x1="2140.0" y1="900.0" x2="1060.0" y2="478.1"></line><line x1="-740.0" y1="900.0" x2="2140.0" y2="900.0"></line><line x1="-691.3" y1="833.0" x2="2091.3" y2="833.0"></line><line x1="-645.8" y1="783.3" x2="2045.8" y2="783.3"></line><line x1="-603.2" y1="745.1" x2="2003.2" y2="745.1"></line><line x1="-563.2" y1="714.7" x2="1963.2" y2="714.7"></line><line x1="-525.5" y1="690.0" x2="1925.5" y2="690.0"></line><line x1="-490.1" y1="669.5" x2="1890.1" y2="669.5"></line><line x1="-456.6" y1="652.2" x2="1856.6" y2="652.2"></line><line x1="-425.0" y1="637.5" x2="1825.0" y2="637.5"></line><line x1="-395.1" y1="624.8" x2="1795.1" y2="624.8"></line><line x1="-366.7" y1="613.6" x2="1766.7" y2="613.6"></line><line x1="-339.7" y1="603.8" x2="1739.7" y2="603.8"></line><line x1="-314.1" y1="595.2" x2="1714.1" y2="595.2"></line><line x1="-289.7" y1="587.4" x2="1689.7" y2="587.4"></line><line x1="-266.4" y1="580.4" x2="1666.4" y2="580.4"></line><line x1="-244.3" y1="574.1" x2="1644.3" y2="574.1"></line><line x1="-223.1" y1="568.4" x2="1623.1" y2="568.4"></line><line x1="-202.8" y1="563.2" x2="1602.8" y2="563.2"></line><line x1="-183.4" y1="558.4" x2="1583.4" y2="558.4"></line><line x1="-164.9" y1="554.0" x2="1564.9" y2="554.0"></line><line x1="-147.1" y1="550.0" x2="1547.1" y2="550.0"></line><line x1="-130.0" y1="546.3" x2="1530.0" y2="546.3"></line><line x1="-113.6" y1="542.8" x2="1513.6" y2="542.8"></line><line x1="-97.8" y1="539.6" x2="1497.8" y2="539.6"></line><line x1="-82.6" y1="536.5" x2="1482.6" y2="536.5"></line><line x1="-68.0" y1="533.7" x2="1468.0" y2="533.7"></line><line x1="-53.9" y1="531.1" x2="1453.9" y2="531.1"></line><line x1="-40.4" y1="528.6" x2="1440.4" y2="528.6"></line><line x1="-27.3" y1="526.3" x2="1427.3" y2="526.3"></line><line x1="-14.6" y1="524.1" x2="1414.6" y2="524.1"></line><line x1="-2.4" y1="522.0" x2="1402.4" y2="522.0"></line><line x1="9.4" y1="520.0" x2="1390.6" y2="520.0"></line><line x1="20.8" y1="518.2" x2="1379.2" y2="518.2"></line><line x1="31.8" y1="516.4" x2="1368.2" y2="516.4"></line><line x1="42.5" y1="514.7" x2="1357.5" y2="514.7"></line><line x1="52.8" y1="513.2" x2="1347.2" y2="513.2"></line><line x1="62.8" y1="511.6" x2="1337.2" y2="511.6"></line><line x1="72.5" y1="510.2" x2="1327.5" y2="510.2"></line><line x1="82.0" y1="508.8" x2="1318.0" y2="508.8"></line><line x1="91.1" y1="507.5" x2="1308.9" y2="507.5"></line><line x1="100.0" y1="506.3" x2="1300.0" y2="506.3"></line><line x1="108.6" y1="505.0" x2="1291.4" y2="505.0"></line><line x1="117.0" y1="503.9" x2="1283.0" y2="503.9"></line></g>
  <g stroke="#0fffd0" stroke-width="0.9" fill="none" mask="url(#ceilMask)" opacity=".55"><line x1="-740.0" y1="0.0" x2="340.0" y2="421.9"></line><line x1="-660.0" y1="0.0" x2="360.0" y2="421.9"></line><line x1="-580.0" y1="0.0" x2="380.0" y2="421.9"></line><line x1="-500.0" y1="0.0" x2="400.0" y2="421.9"></line><line x1="-420.0" y1="0.0" x2="420.0" y2="421.9"></line><line x1="-340.0" y1="0.0" x2="440.0" y2="421.9"></line><line x1="-260.0" y1="0.0" x2="460.0" y2="421.9"></line><line x1="-180.0" y1="0.0" x2="480.0" y2="421.9"></line><line x1="-100.0" y1="0.0" x2="500.0" y2="421.9"></line><line x1="-20.0" y1="0.0" x2="520.0" y2="421.9"></line><line x1="60.0" y1="0.0" x2="540.0" y2="421.9"></line><line x1="140.0" y1="0.0" x2="560.0" y2="421.9"></line><line x1="220.0" y1="0.0" x2="580.0" y2="421.9"></line><line x1="300.0" y1="0.0" x2="600.0" y2="421.9"></line><line x1="380.0" y1="0.0" x2="620.0" y2="421.9"></line><line x1="460.0" y1="0.0" x2="640.0" y2="421.9"></line><line x1="540.0" y1="0.0" x2="660.0" y2="421.9"></line><line x1="620.0" y1="0.0" x2="680.0" y2="421.9"></line><line x1="700.0" y1="0.0" x2="700.0" y2="421.9"></line><line x1="780.0" y1="0.0" x2="720.0" y2="421.9"></line><line x1="860.0" y1="0.0" x2="740.0" y2="421.9"></line><line x1="940.0" y1="0.0" x2="760.0" y2="421.9"></line><line x1="1020.0" y1="0.0" x2="780.0" y2="421.9"></line><line x1="1100.0" y1="0.0" x2="800.0" y2="421.9"></line><line x1="1180.0" y1="0.0" x2="820.0" y2="421.9"></line><line x1="1260.0" y1="0.0" x2="840.0" y2="421.9"></line><line x1="1340.0" y1="0.0" x2="860.0" y2="421.9"></line><line x1="1420.0" y1="0.0" x2="880.0" y2="421.9"></line><line x1="1500.0" y1="0.0" x2="900.0" y2="421.9"></line><line x1="1580.0" y1="0.0" x2="920.0" y2="421.9"></line><line x1="1660.0" y1="0.0" x2="940.0" y2="421.9"></line><line x1="1740.0" y1="0.0" x2="960.0" y2="421.9"></line><line x1="1820.0" y1="0.0" x2="980.0" y2="421.9"></line><line x1="1900.0" y1="0.0" x2="1000.0" y2="421.9"></line><line x1="1980.0" y1="0.0" x2="1020.0" y2="421.9"></line><line x1="2060.0" y1="0.0" x2="1040.0" y2="421.9"></line><line x1="2140.0" y1="0.0" x2="1060.0" y2="421.9"></line><line x1="-740.0" y1="0.0" x2="2140.0" y2="0.0"></line><line x1="-691.3" y1="67.0" x2="2091.3" y2="67.0"></line><line x1="-645.8" y1="116.7" x2="2045.8" y2="116.7"></line><line x1="-603.2" y1="154.9" x2="2003.2" y2="154.9"></line><line x1="-563.2" y1="185.3" x2="1963.2" y2="185.3"></line><line x1="-525.5" y1="210.0" x2="1925.5" y2="210.0"></line><line x1="-490.1" y1="230.5" x2="1890.1" y2="230.5"></line><line x1="-456.6" y1="247.8" x2="1856.6" y2="247.8"></line><line x1="-425.0" y1="262.5" x2="1825.0" y2="262.5"></line><line x1="-395.1" y1="275.2" x2="1795.1" y2="275.2"></line><line x1="-366.7" y1="286.4" x2="1766.7" y2="286.4"></line><line x1="-339.7" y1="296.2" x2="1739.7" y2="296.2"></line><line x1="-314.1" y1="304.8" x2="1714.1" y2="304.8"></line><line x1="-289.7" y1="312.6" x2="1689.7" y2="312.6"></line><line x1="-266.4" y1="319.6" x2="1666.4" y2="319.6"></line><line x1="-244.3" y1="325.9" x2="1644.3" y2="325.9"></line><line x1="-223.1" y1="331.6" x2="1623.1" y2="331.6"></line><line x1="-202.8" y1="336.8" x2="1602.8" y2="336.8"></line><line x1="-183.4" y1="341.6" x2="1583.4" y2="341.6"></line><line x1="-164.9" y1="346.0" x2="1564.9" y2="346.0"></line><line x1="-147.1" y1="350.0" x2="1547.1" y2="350.0"></line><line x1="-130.0" y1="353.7" x2="1530.0" y2="353.7"></line><line x1="-113.6" y1="357.2" x2="1513.6" y2="357.2"></line><line x1="-97.8" y1="360.4" x2="1497.8" y2="360.4"></line><line x1="-82.6" y1="363.5" x2="1482.6" y2="363.5"></line><line x1="-68.0" y1="366.3" x2="1468.0" y2="366.3"></line><line x1="-53.9" y1="368.9" x2="1453.9" y2="368.9"></line><line x1="-40.4" y1="371.4" x2="1440.4" y2="371.4"></line><line x1="-27.3" y1="373.7" x2="1427.3" y2="373.7"></line><line x1="-14.6" y1="375.9" x2="1414.6" y2="375.9"></line><line x1="-2.4" y1="378.0" x2="1402.4" y2="378.0"></line><line x1="9.4" y1="380.0" x2="1390.6" y2="380.0"></line><line x1="20.8" y1="381.8" x2="1379.2" y2="381.8"></line><line x1="31.8" y1="383.6" x2="1368.2" y2="383.6"></line><line x1="42.5" y1="385.3" x2="1357.5" y2="385.3"></line><line x1="52.8" y1="386.8" x2="1347.2" y2="386.8"></line><line x1="62.8" y1="388.4" x2="1337.2" y2="388.4"></line><line x1="72.5" y1="389.8" x2="1327.5" y2="389.8"></line><line x1="82.0" y1="391.2" x2="1318.0" y2="391.2"></line><line x1="91.1" y1="392.5" x2="1308.9" y2="392.5"></line><line x1="100.0" y1="393.7" x2="1300.0" y2="393.7"></line><line x1="108.6" y1="395.0" x2="1291.4" y2="395.0"></line><line x1="117.0" y1="396.1" x2="1283.0" y2="396.1"></line></g>
</svg>