<svg xmlns="http://www.w3.org/2000/svg" viewBox="0 0 1600 900" preserveAspectRatio="xMidYMax slice">
  
  <g>
    <line x1="800" y1="0" x2="800" y2="900" stroke="#0a1220" stroke-width="14"></line>
    <line x1="780" y1="0" x2="780" y2="900" stroke="#1a2a3e" stroke-width="4"></line>
    <line x1="820" y1="0" x2="820" y2="900" stroke="#1a2a3e" stroke-width="4"></line>
    
    <g stroke="#1a2a3e" stroke-width="3">
      <line x1="775" y1="60" x2="825" y2="60"></line>
      <line x1="775" y1="120" x2="825" y2="120"></line>
      <line x1="775" y1="180" x2="825" y2="180"></line>
      <line x1="775" y1="240" x2="825" y2="240"></line>
      <line x1="775" y1="300" x2="825" y2="300"></line>
      <line x1="775" y1="360" x2="825" y2="360"></line>
      <line x1="775" y1="420" x2="825" y2="420"></line>
      <line x1="775" y1="480" x2="825" y2="480"></line>
      <line x1="775" y1="540" x2="825" y2="540"></line>
      <line x1="775" y1="600" x2="825" y2="600"></line>
      <line x1="775" y1="660" x2="825" y2="660"></line>
      <line x1="775" y1="720" x2="825" y2="720"></line>
      <line x1="775" y1="780" x2="825" y2="780"></line>
      <line x1="775" y1="840" x2="825" y2="840"></line>
    </g>
    
    <circle cx="800" cy="870" r="6" fill="#ff3a2a">
      
    </circle>
    <circle cx="800" cy="870" r="18" fill="#ff3a2a" opacity=".25">
      
      
    </circle>
  </g>
</svg>