<svg xmlns="http://www.w3.org/2000/svg" viewBox="0 0 1600 240" preserveAspectRatio="xMidYMax slice">

  <g fill="#5a2408" opacity=".78">
    <rect x="0" y="80" width="80" height="160"></rect>
    <rect x="90" y="40" width="60" height="200"></rect>
    <rect x="160" y="100" width="40" height="140"></rect>
    <rect x="210" y="20" width="100" height="220"></rect>
    <rect x="320" y="70" width="50" height="170"></rect>
    <rect x="380" y="0" width="80" height="240"></rect>
    <rect x="470" y="50" width="55" height="190"></rect>
    <rect x="535" y="90" width="45" height="150"></rect>
    <rect x="590" y="10" width="120" height="230"></rect>
    <rect x="720" y="60" width="70" height="180"></rect>
    <rect x="800" y="30" width="90" height="210"></rect>
    <rect x="900" y="80" width="55" height="160"></rect>
    <rect x="965" y="50" width="75" height="190"></rect>
    <rect x="1050" y="100" width="40" height="140"></rect>
    <rect x="1100" y="20" width="100" height="220"></rect>
    <rect x="1210" y="60" width="60" height="180"></rect>
    <rect x="1280" y="40" width="85" height="200"></rect>
    <rect x="1375" y="90" width="50" height="150"></rect>
    <rect x="1435" y="60" width="70" height="180"></rect>
    <rect x="1515" y="100" width="85" height="140"></rect>
  </g>

  <g fill="#ffcf7a" opacity=".55">
    <rect x="232" y="60" width="4" height="6"></rect>
    <rect x="258" y="100" width="4" height="6"></rect>
    <rect x="280" y="80" width="4" height="6"></rect>
    <rect x="400" y="40" width="4" height="6"></rect>
    <rect x="420" y="70" width="4" height="6"></rect>
    <rect x="610" y="50" width="4" height="6"></rect>
    <rect x="640" y="90" width="4" height="6"></rect>
    <rect x="680" y="120" width="4" height="6"></rect>
    <rect x="820" y="70" width="4" height="6"></rect>
    <rect x="860" y="110" width="4" height="6"></rect>
    <rect x="1120" y="60" width="4" height="6"></rect>
    <rect x="1160" y="90" width="4" height="6"></rect>
    <rect x="1300" y="80" width="4" height="6"></rect>
    <rect x="1340" y="130" width="4" height="6"></rect>
  </g>
</svg>