<svg xmlns="http://www.w3.org/2000/svg" viewBox="0 0 1600 900" preserveAspectRatio="xMidYMid slice">
  <g fill="#6a3030" opacity=".55">
    <circle cx="120" cy="380" r="1.3"></circle><circle cx="280" cy="460" r="0.9"></circle>
    <circle cx="420" cy="320" r="1.1"></circle><circle cx="560" cy="500" r="1.4"></circle>
    <circle cx="720" cy="400" r="1"></circle><circle cx="860" cy="520" r="1.2"></circle>
    <circle cx="1000" cy="360" r="0.9"></circle><circle cx="1160" cy="480" r="1.3"></circle>
    <circle cx="1300" cy="340" r="1"></circle><circle cx="1460" cy="500" r="1.1"></circle>
    <circle cx="180" cy="580" r="1"></circle><circle cx="380" cy="620" r="1.3"></circle>
    <circle cx="600" cy="640" r="1.1"></circle><circle cx="820" cy="600" r="0.9"></circle>
    <circle cx="1040" cy="660" r="1.2"></circle><circle cx="1260" cy="620" r="1"></circle>
    <circle cx="1480" cy="640" r="1.1"></circle>
  </g>
  <g fill="#3a0810" opacity=".6">
    <circle cx="240" cy="700" r="1.3"></circle><circle cx="520" cy="740" r="1"></circle>
    <circle cx="800" cy="720" r="1.4"></circle><circle cx="1080" cy="700" r="1.1"></circle>
    <circle cx="1360" cy="740" r="1.2"></circle>
  </g>
</svg>