<svg xmlns="http://www.w3.org/2000/svg" viewBox="0 0 1600 200" preserveAspectRatio="xMidYMax slice">

  <g fill="#2a0f04">
    <polygon points="0,200 0,120 70,120 70,160 150,160 150,80 260,80 260,140 380,140 380,40 520,40 520,100 640,100 640,10 800,10 800,70 960,70 960,30 1100,30 1100,110 1240,110 1240,50 1380,50 1380,130 1500,130 1500,90 1600,90 1600,200"></polygon>
  </g>

  <g stroke="#2a0f04" stroke-width="3">
    <line x1="430" y1="40" x2="430" y2="4"></line>
    <line x1="710" y1="10" x2="710" y2="0"></line>
    <line x1="1020" y1="30" x2="1020" y2="2"></line>
    <line x1="1310" y1="50" x2="1310" y2="14"></line>
  </g>

  <g fill="#f3b16a" opacity=".7">
    <rect x="180" y="100" width="3" height="5"></rect>
    <rect x="210" y="110" width="3" height="5"></rect>
    <rect x="240" y="105" width="3" height="5"></rect>
    <rect x="300" y="110" width="3" height="5"></rect>
    <rect x="340" y="100" width="3" height="5"></rect>
    <rect x="420" y="60" width="3" height="5"></rect>
    <rect x="460" y="80" width="3" height="5"></rect>
    <rect x="560" y="70" width="3" height="5"></rect>
    <rect x="600" y="90" width="3" height="5"></rect>
    <rect x="680" y="30" width="3" height="5"></rect>
    <rect x="730" y="50" width="3" height="5"></rect>
    <rect x="770" y="60" width="3" height="5"></rect>
    <rect x="850" y="40" width="3" height="5"></rect>
    <rect x="900" y="70" width="3" height="5"></rect>
    <rect x="990" y="70" width="3" height="5"></rect>
    <rect x="1050" y="90" width="3" height="5"></rect>
    <rect x="1140" y="60" width="3" height="5"></rect>
    <rect x="1200" y="90" width="3" height="5"></rect>
    <rect x="1270" y="80" width="3" height="5"></rect>
    <rect x="1340" y="90" width="3" height="5"></rect>
    <rect x="1430" y="80" width="3" height="5"></rect>
    <rect x="1480" y="110" width="3" height="5"></rect>
  </g>
</svg>