<svg xmlns="http://www.w3.org/2000/svg" viewBox="0 0 1600 360" preserveAspectRatio="xMidYMid slice">
  <rect x="0" y="330" width="1600" height="30" fill="#000"></rect>
  <g fill="#000"><polygon points="40,70 34.0,94.2 29.2,118.3 28.1,142.5 18.3,166.7 22.1,190.8 7.5,215.0 16.2,239.2 -3.3,263.3 10.2,287.5 -14.2,311.7 4.3,335.8 -25.0,360.0 40,360 105.0,360.0 75.8,335.8 94.2,311.7 69.8,287.5 83.3,263.3 63.8,239.2 72.5,215.0 57.9,190.8 61.7,166.7 51.9,142.5 50.8,118.3 46.0,94.2"></polygon><polygon points="160,20 153.1,48.3 147.5,76.7 146.3,105.0 135.0,133.3 139.4,161.7 122.5,190.0 132.5,218.3 110.0,246.7 125.6,275.0 97.5,303.3 118.8,331.7 85.0,360.0 160,360 235.0,360.0 201.3,331.7 222.5,303.3 194.4,275.0 210.0,246.7 187.5,218.3 197.5,190.0 180.6,161.7 185.0,133.3 173.8,105.0 172.5,76.7 166.9,48.3"></polygon><polygon points="310,40 303.6,66.7 298.3,93.3 297.2,120.0 286.7,146.7 290.8,173.3 275.0,200.0 284.3,226.7 263.3,253.3 277.9,280.0 251.7,306.7 271.5,333.3 240.0,360.0 310,360 380.0,360.0 348.5,333.3 368.3,306.7 342.1,280.0 356.7,253.3 335.7,226.7 345.0,200.0 329.3,173.3 333.3,146.7 322.8,120.0 321.7,93.3 316.4,66.7"></polygon><polygon points="460,0 452.4,30.0 446.3,60.0 444.9,90.0 432.5,120.0 437.3,150.0 418.8,180.0 429.8,210.0 405.0,240.0 422.2,270.0 391.3,300.0 414.6,330.0 377.5,360.0 460,360 542.5,360.0 505.4,330.0 528.8,300.0 497.8,270.0 515.0,240.0 490.3,210.0 501.3,180.0 482.7,150.0 487.5,120.0 475.1,90.0 473.8,60.0 467.6,30.0"></polygon><polygon points="620,60 613.4,85.0 607.9,110.0 606.7,135.0 595.8,160.0 600.1,185.0 583.8,210.0 593.4,235.0 571.7,260.0 586.8,285.0 559.6,310.0 580.1,335.0 547.5,360.0 620,360 692.5,360.0 659.9,335.0 680.4,310.0 653.2,285.0 668.3,260.0 646.6,235.0 656.3,210.0 639.9,185.0 644.2,160.0 633.3,135.0 632.1,110.0 626.6,85.0"></polygon><polygon points="780,20 773.1,48.3 767.5,76.7 766.3,105.0 755.0,133.3 759.4,161.7 742.5,190.0 752.5,218.3 730.0,246.7 745.6,275.0 717.5,303.3 738.8,331.7 705.0,360.0 780,360 855.0,360.0 821.3,331.7 842.5,303.3 814.4,275.0 830.0,246.7 807.5,218.3 817.5,190.0 800.6,161.7 805.0,133.3 793.8,105.0 792.5,76.7 786.9,48.3"></polygon><polygon points="940,0 932.7,30.0 926.7,60.0 925.3,90.0 913.3,120.0 918.0,150.0 900.0,180.0 910.7,210.0 886.7,240.0 903.3,270.0 873.3,300.0 896.0,330.0 860.0,360.0 940,360 1020.0,360.0 984.0,330.0 1006.7,300.0 976.7,270.0 993.3,240.0 969.3,210.0 980.0,180.0 962.0,150.0 966.7,120.0 954.7,90.0 953.3,60.0 947.3,30.0"></polygon><polygon points="1100,50 1093.6,75.8 1088.3,101.7 1087.2,127.5 1076.7,153.3 1080.8,179.2 1065.0,205.0 1074.3,230.8 1053.3,256.7 1067.9,282.5 1041.7,308.3 1061.5,334.2 1030.0,360.0 1100,360 1170.0,360.0 1138.5,334.2 1158.3,308.3 1132.1,282.5 1146.7,256.7 1125.7,230.8 1135.0,205.0 1119.3,179.2 1123.3,153.3 1112.8,127.5 1111.7,101.7 1106.4,75.8"></polygon><polygon points="1260,10 1252.9,39.2 1247.1,68.3 1245.8,97.5 1234.2,126.7 1238.7,155.8 1221.3,185.0 1231.6,214.2 1208.3,243.3 1224.5,272.5 1195.4,301.7 1217.4,330.8 1182.5,360.0 1260,360 1337.5,360.0 1302.6,330.8 1324.6,301.7 1295.5,272.5 1311.7,243.3 1288.4,214.2 1298.8,185.0 1281.3,155.8 1285.8,126.7 1274.2,97.5 1272.9,68.3 1267.1,39.2"></polygon><polygon points="1420,30 1413.1,57.5 1407.5,85.0 1406.3,112.5 1395.0,140.0 1399.4,167.5 1382.5,195.0 1392.5,222.5 1370.0,250.0 1385.6,277.5 1357.5,305.0 1378.8,332.5 1345.0,360.0 1420,360 1495.0,360.0 1461.3,332.5 1482.5,305.0 1454.4,277.5 1470.0,250.0 1447.5,222.5 1457.5,195.0 1440.6,167.5 1445.0,140.0 1433.8,112.5 1432.5,85.0 1426.9,57.5"></polygon><polygon points="1560,0 1552.7,30.0 1546.7,60.0 1545.3,90.0 1533.3,120.0 1538.0,150.0 1520.0,180.0 1530.7,210.0 1506.7,240.0 1523.3,270.0 1493.3,300.0 1516.0,330.0 1480.0,360.0 1560,360 1640.0,360.0 1604.0,330.0 1626.7,300.0 1596.7,270.0 1613.3,240.0 1589.3,210.0 1600.0,180.0 1582.0,150.0 1586.7,120.0 1574.7,90.0 1573.3,60.0 1567.3,30.0"></polygon><polygon points="90,110 84.7,130.8 80.4,151.7 79.5,172.5 70.8,193.3 74.2,214.2 61.3,235.0 68.9,255.8 51.7,276.7 63.6,297.5 42.1,318.3 58.4,339.2 32.5,360.0 90,360 147.5,360.0 121.6,339.2 137.9,318.3 116.4,297.5 128.3,276.7 111.1,255.8 118.8,235.0 105.8,214.2 109.2,193.3 100.5,172.5 99.6,151.7 95.3,130.8"></polygon><polygon points="240,70 234.3,94.2 229.6,118.3 228.5,142.5 219.2,166.7 222.8,190.8 208.8,215.0 217.1,239.2 198.3,263.3 211.4,287.5 187.9,311.7 205.6,335.8 177.5,360.0 240,360 302.5,360.0 274.4,335.8 292.1,311.7 268.6,287.5 281.7,263.3 262.9,239.2 271.3,215.0 257.2,190.8 260.8,166.7 251.5,142.5 250.4,118.3 245.7,94.2"></polygon><polygon points="380,90 374.5,112.5 370.0,135.0 369.0,157.5 360.0,180.0 363.5,202.5 350.0,225.0 358.0,247.5 340.0,270.0 352.5,292.5 330.0,315.0 347.0,337.5 320.0,360.0 380,360 440.0,360.0 413.0,337.5 430.0,315.0 407.5,292.5 420.0,270.0 402.0,247.5 410.0,225.0 396.5,202.5 400.0,180.0 391.0,157.5 390.0,135.0 385.5,112.5"></polygon><polygon points="540,50 533.6,75.8 528.3,101.7 527.2,127.5 516.7,153.3 520.8,179.2 505.0,205.0 514.3,230.8 493.3,256.7 507.9,282.5 481.7,308.3 501.5,334.2 470.0,360.0 540,360 610.0,360.0 578.5,334.2 598.3,308.3 572.1,282.5 586.7,256.7 565.7,230.8 575.0,205.0 559.3,179.2 563.3,153.3 552.8,127.5 551.7,101.7 546.4,75.8"></polygon><polygon points="700,80 694.0,103.3 689.2,126.7 688.1,150.0 678.3,173.3 682.1,196.7 667.5,220.0 676.2,243.3 656.7,266.7 670.2,290.0 645.8,313.3 664.3,336.7 635.0,360.0 700,360 765.0,360.0 735.8,336.7 754.2,313.3 729.8,290.0 743.3,266.7 723.8,243.3 732.5,220.0 717.9,196.7 721.7,173.3 711.9,150.0 710.8,126.7 706.0,103.3"></polygon><polygon points="860,60 853.6,85.0 848.3,110.0 847.2,135.0 836.7,160.0 840.8,185.0 825.0,210.0 834.3,235.0 813.3,260.0 827.9,285.0 801.7,310.0 821.5,335.0 790.0,360.0 860,360 930.0,360.0 898.5,335.0 918.3,310.0 892.1,285.0 906.7,260.0 885.7,235.0 895.0,210.0 879.3,185.0 883.3,160.0 872.8,135.0 871.7,110.0 866.4,85.0"></polygon><polygon points="1020,80 1014.0,103.3 1009.2,126.7 1008.1,150.0 998.3,173.3 1002.1,196.7 987.5,220.0 996.2,243.3 976.7,266.7 990.2,290.0 965.8,313.3 984.3,336.7 955.0,360.0 1020,360 1085.0,360.0 1055.8,336.7 1074.2,313.3 1049.8,290.0 1063.3,266.7 1043.8,243.3 1052.5,220.0 1037.9,196.7 1041.7,173.3 1031.9,150.0 1030.8,126.7 1026.0,103.3"></polygon><polygon points="1180,50 1173.6,75.8 1168.3,101.7 1167.2,127.5 1156.7,153.3 1160.8,179.2 1145.0,205.0 1154.3,230.8 1133.3,256.7 1147.9,282.5 1121.7,308.3 1141.5,334.2 1110.0,360.0 1180,360 1250.0,360.0 1218.5,334.2 1238.3,308.3 1212.1,282.5 1226.7,256.7 1205.7,230.8 1215.0,205.0 1199.3,179.2 1203.3,153.3 1192.8,127.5 1191.7,101.7 1186.4,75.8"></polygon><polygon points="1340,70 1334.0,94.2 1329.2,118.3 1328.1,142.5 1318.3,166.7 1322.1,190.8 1307.5,215.0 1316.2,239.2 1296.7,263.3 1310.2,287.5 1285.8,311.7 1304.3,335.8 1275.0,360.0 1340,360 1405.0,360.0 1375.8,335.8 1394.2,311.7 1369.8,287.5 1383.3,263.3 1363.8,239.2 1372.5,215.0 1357.9,190.8 1361.7,166.7 1351.9,142.5 1350.8,118.3 1346.0,94.2"></polygon><polygon points="1500,50 1493.8,75.8 1488.8,101.7 1487.6,127.5 1477.5,153.3 1481.4,179.2 1466.3,205.0 1475.3,230.8 1455.0,256.7 1469.1,282.5 1443.8,308.3 1462.9,334.2 1432.5,360.0 1500,360 1567.5,360.0 1537.1,334.2 1556.3,308.3 1530.9,282.5 1545.0,256.7 1524.8,230.8 1533.8,205.0 1518.6,179.2 1522.5,153.3 1512.4,127.5 1511.3,101.7 1506.2,75.8"></polygon></g>
</svg>