<svg xmlns="http://www.w3.org/2000/svg" viewBox="0 0 1600 320" preserveAspectRatio="xMidYMid slice">
  <g fill="#1a4248" opacity=".88"><polygon points="60,120 54.6,140.0 51.0,160.0 49.2,180.0 42.0,200.0 43.8,220.0 33.0,240.0 38.4,260.0 24.0,280.0 33.0,300.0 15.0,320.0 60,320 105.0,320.0 87.0,300.0 96.0,280.0 81.6,260.0 87.0,240.0 76.2,220.0 78.0,200.0 70.8,180.0 69.0,160.0 65.4,140.0"></polygon><polygon points="180,80 173.4,104.0 169.0,128.0 166.8,152.0 158.0,176.0 160.2,200.0 147.0,224.0 153.6,248.0 136.0,272.0 147.0,296.0 125.0,320.0 180,320 235.0,320.0 213.0,296.0 224.0,272.0 206.4,248.0 213.0,224.0 199.8,200.0 202.0,176.0 193.2,152.0 191.0,128.0 186.6,104.0"></polygon><polygon points="320,100 314.3,122.0 310.5,144.0 308.6,166.0 301.0,188.0 302.9,210.0 291.5,232.0 297.2,254.0 282.0,276.0 291.5,298.0 272.5,320.0 320,320 367.5,320.0 348.5,298.0 358.0,276.0 342.8,254.0 348.5,232.0 337.1,210.0 339.0,188.0 331.4,166.0 329.5,144.0 325.7,122.0"></polygon><polygon points="460,60 452.8,86.0 448.0,112.0 445.6,138.0 436.0,164.0 438.4,190.0 424.0,216.0 431.2,242.0 412.0,268.0 424.0,294.0 400.0,320.0 460,320 520.0,320.0 496.0,294.0 508.0,268.0 488.8,242.0 496.0,216.0 481.6,190.0 484.0,164.0 474.4,138.0 472.0,112.0 467.2,86.0"></polygon><polygon points="600,120 594.0,140.0 590.0,160.0 588.0,180.0 580.0,200.0 582.0,220.0 570.0,240.0 576.0,260.0 560.0,280.0 570.0,300.0 550.0,320.0 600,320 650.0,320.0 630.0,300.0 640.0,280.0 624.0,260.0 630.0,240.0 618.0,220.0 620.0,200.0 612.0,180.0 610.0,160.0 606.0,140.0"></polygon><polygon points="740,80 733.7,104.0 729.5,128.0 727.4,152.0 719.0,176.0 721.1,200.0 708.5,224.0 714.8,248.0 698.0,272.0 708.5,296.0 687.5,320.0 740,320 792.5,320.0 771.5,296.0 782.0,272.0 765.2,248.0 771.5,224.0 758.9,200.0 761.0,176.0 752.6,152.0 750.5,128.0 746.3,104.0"></polygon><polygon points="880,70 873.1,95.0 868.5,120.0 866.2,145.0 857.0,170.0 859.3,195.0 845.5,220.0 852.4,245.0 834.0,270.0 845.5,295.0 822.5,320.0 880,320 937.5,320.0 914.5,295.0 926.0,270.0 907.6,245.0 914.5,220.0 900.7,195.0 903.0,170.0 893.8,145.0 891.5,120.0 886.9,95.0"></polygon><polygon points="1020,110 1014.3,131.0 1010.5,152.0 1008.6,173.0 1001.0,194.0 1002.9,215.0 991.5,236.0 997.2,257.0 982.0,278.0 991.5,299.0 972.5,320.0 1020,320 1067.5,320.0 1048.5,299.0 1058.0,278.0 1042.8,257.0 1048.5,236.0 1037.1,215.0 1039.0,194.0 1031.4,173.0 1029.5,152.0 1025.7,131.0"></polygon><polygon points="1160,70 1153.4,95.0 1149.0,120.0 1146.8,145.0 1138.0,170.0 1140.2,195.0 1127.0,220.0 1133.6,245.0 1116.0,270.0 1127.0,295.0 1105.0,320.0 1160,320 1215.0,320.0 1193.0,295.0 1204.0,270.0 1186.4,245.0 1193.0,220.0 1179.8,195.0 1182.0,170.0 1173.2,145.0 1171.0,120.0 1166.6,95.0"></polygon><polygon points="1300,90 1294.0,113.0 1290.0,136.0 1288.0,159.0 1280.0,182.0 1282.0,205.0 1270.0,228.0 1276.0,251.0 1260.0,274.0 1270.0,297.0 1250.0,320.0 1300,320 1350.0,320.0 1330.0,297.0 1340.0,274.0 1324.0,251.0 1330.0,228.0 1318.0,205.0 1320.0,182.0 1312.0,159.0 1310.0,136.0 1306.0,113.0"></polygon><polygon points="1440,60 1433.1,86.0 1428.5,112.0 1426.2,138.0 1417.0,164.0 1419.3,190.0 1405.5,216.0 1412.4,242.0 1394.0,268.0 1405.5,294.0 1382.5,320.0 1440,320 1497.5,320.0 1474.5,294.0 1486.0,268.0 1467.6,242.0 1474.5,216.0 1460.7,190.0 1463.0,164.0 1453.8,138.0 1451.5,112.0 1446.9,86.0"></polygon><polygon points="1560,100 1554.3,122.0 1550.5,144.0 1548.6,166.0 1541.0,188.0 1542.9,210.0 1531.5,232.0 1537.2,254.0 1522.0,276.0 1531.5,298.0 1512.5,320.0 1560,320 1607.5,320.0 1588.5,298.0 1598.0,276.0 1582.8,254.0 1588.5,232.0 1577.1,210.0 1579.0,188.0 1571.4,166.0 1569.5,144.0 1565.7,122.0"></polygon><polygon points="110,140 105.5,158.0 102.5,176.0 101.0,194.0 95.0,212.0 96.5,230.0 87.5,248.0 92.0,266.0 80.0,284.0 87.5,302.0 72.5,320.0 110,320 147.5,320.0 132.5,302.0 140.0,284.0 128.0,266.0 132.5,248.0 123.5,230.0 125.0,212.0 119.0,194.0 117.5,176.0 114.5,158.0"></polygon><polygon points="240,110 234.9,131.0 231.5,152.0 229.8,173.0 223.0,194.0 224.7,215.0 214.5,236.0 219.6,257.0 206.0,278.0 214.5,299.0 197.5,320.0 240,320 282.5,320.0 265.5,299.0 274.0,278.0 260.4,257.0 265.5,236.0 255.3,215.0 257.0,194.0 250.2,173.0 248.5,152.0 245.1,131.0"></polygon><polygon points="400,120 394.9,140.0 391.5,160.0 389.8,180.0 383.0,200.0 384.7,220.0 374.5,240.0 379.6,260.0 366.0,280.0 374.5,300.0 357.5,320.0 400,320 442.5,320.0 425.5,300.0 434.0,280.0 420.4,260.0 425.5,240.0 415.3,220.0 417.0,200.0 410.2,180.0 408.5,160.0 405.1,140.0"></polygon><polygon points="540,80 534.0,104.0 530.0,128.0 528.0,152.0 520.0,176.0 522.0,200.0 510.0,224.0 516.0,248.0 500.0,272.0 510.0,296.0 490.0,320.0 540,320 590.0,320.0 570.0,296.0 580.0,272.0 564.0,248.0 570.0,224.0 558.0,200.0 560.0,176.0 552.0,152.0 550.0,128.0 546.0,104.0"></polygon><polygon points="680,100 674.6,122.0 671.0,144.0 669.2,166.0 662.0,188.0 663.8,210.0 653.0,232.0 658.4,254.0 644.0,276.0 653.0,298.0 635.0,320.0 680,320 725.0,320.0 707.0,298.0 716.0,276.0 701.6,254.0 707.0,232.0 696.2,210.0 698.0,188.0 690.8,166.0 689.0,144.0 685.4,122.0"></polygon><polygon points="820,90 814.0,113.0 810.0,136.0 808.0,159.0 800.0,182.0 802.0,205.0 790.0,228.0 796.0,251.0 780.0,274.0 790.0,297.0 770.0,320.0 820,320 870.0,320.0 850.0,297.0 860.0,274.0 844.0,251.0 850.0,228.0 838.0,205.0 840.0,182.0 832.0,159.0 830.0,136.0 826.0,113.0"></polygon><polygon points="960,100 954.6,122.0 951.0,144.0 949.2,166.0 942.0,188.0 943.8,210.0 933.0,232.0 938.4,254.0 924.0,276.0 933.0,298.0 915.0,320.0 960,320 1005.0,320.0 987.0,298.0 996.0,276.0 981.6,254.0 987.0,232.0 976.2,210.0 978.0,188.0 970.8,166.0 969.0,144.0 965.4,122.0"></polygon><polygon points="1100,80 1094.0,104.0 1090.0,128.0 1088.0,152.0 1080.0,176.0 1082.0,200.0 1070.0,224.0 1076.0,248.0 1060.0,272.0 1070.0,296.0 1050.0,320.0 1100,320 1150.0,320.0 1130.0,296.0 1140.0,272.0 1124.0,248.0 1130.0,224.0 1118.0,200.0 1120.0,176.0 1112.0,152.0 1110.0,128.0 1106.0,104.0"></polygon><polygon points="1240,100 1234.6,122.0 1231.0,144.0 1229.2,166.0 1222.0,188.0 1223.8,210.0 1213.0,232.0 1218.4,254.0 1204.0,276.0 1213.0,298.0 1195.0,320.0 1240,320 1285.0,320.0 1267.0,298.0 1276.0,276.0 1261.6,254.0 1267.0,232.0 1256.2,210.0 1258.0,188.0 1250.8,166.0 1249.0,144.0 1245.4,122.0"></polygon><polygon points="1380,80 1374.0,104.0 1370.0,128.0 1368.0,152.0 1360.0,176.0 1362.0,200.0 1350.0,224.0 1356.0,248.0 1340.0,272.0 1350.0,296.0 1330.0,320.0 1380,320 1430.0,320.0 1410.0,296.0 1420.0,272.0 1404.0,248.0 1410.0,224.0 1398.0,200.0 1400.0,176.0 1392.0,152.0 1390.0,128.0 1386.0,104.0"></polygon><polygon points="1500,100 1494.7,122.0 1491.2,144.0 1489.4,166.0 1482.4,188.0 1484.2,210.0 1473.6,232.0 1478.9,254.0 1464.8,276.0 1473.6,298.0 1456.0,320.0 1500,320 1544.0,320.0 1526.4,298.0 1535.2,276.0 1521.1,254.0 1526.4,232.0 1515.8,210.0 1517.6,188.0 1510.6,166.0 1508.8,144.0 1505.3,122.0"></polygon></g>
</svg>