<svg xmlns="http://www.w3.org/2000/svg" viewBox="0 0 1600 900" preserveAspectRatio="xMidYMax slice">
  <g fill="#2a0608">
    <rect x="60" y="560" width="80" height="340"></rect>
    <rect x="180" y="600" width="70" height="300"></rect>
    <rect x="290" y="540" width="90" height="360"></rect>
    <rect x="420" y="580" width="70" height="320"></rect>
    <rect x="520" y="520" width="100" height="380"></rect>
    <rect x="660" y="560" width="80" height="340"></rect>
    <rect x="780" y="500" width="110" height="400"></rect>
    <rect x="920" y="540" width="90" height="360"></rect>
    <rect x="1040" y="580" width="80" height="320"></rect>
    <rect x="1150" y="520" width="100" height="380"></rect>
    <rect x="1280" y="560" width="80" height="340"></rect>
    <rect x="1390" y="600" width="70" height="300"></rect>
    <rect x="1490" y="540" width="100" height="360"></rect>
  </g>
  <g fill="#ee3828" opacity=".7">
    <rect x="80" y="620" width="3" height="6"></rect><rect x="92" y="640" width="3" height="6"></rect>
    <rect x="308" y="600" width="3" height="6"></rect><rect x="320" y="620" width="3" height="6"></rect>
    <rect x="540" y="580" width="3" height="6"></rect><rect x="560" y="620" width="3" height="6"></rect>
    <rect x="800" y="560" width="3" height="6"></rect><rect x="820" y="600" width="3" height="6"></rect>
    <rect x="940" y="600" width="3" height="6"></rect><rect x="1170" y="580" width="3" height="6"></rect>
    <rect x="1300" y="620" width="3" height="6"></rect><rect x="1510" y="600" width="3" height="6"></rect>
  </g>
</svg>