<svg xmlns="http://www.w3.org/2000/svg" viewBox="0 0 1600 900" preserveAspectRatio="xMidYMax slice">
  
  <defs>
    <linearGradient id="cw" x1="0" y1="0" x2="0" y2="1">
      <stop offset="0" stop-color="#2a0d02"></stop>
      <stop offset="1" stop-color="#5a2208"></stop>
    </linearGradient>
    <linearGradient id="fl" x1="0" y1="0" x2="0" y2="1">
      <stop offset="0" stop-color="#7a2c08"></stop>
      <stop offset="1" stop-color="#1a0500"></stop>
    </linearGradient>
  </defs>
  
  <polygon points="0,0 600,300 600,600 0,900" fill="url(#cw)"></polygon>
  
  <polygon points="1600,0 1000,300 1000,600 1600,900" fill="url(#cw)"></polygon>
  
  <polygon points="600,600 1000,600 1600,900 0,900" fill="url(#fl)"></polygon>
  
  <polygon points="0,0 1600,0 1000,300 600,300" fill="#180500"></polygon>
  
  <rect x="640" y="340" width="320" height="240" fill="#050100"></rect>
  <rect x="660" y="360" width="280" height="200" fill="none" stroke="#3a1408" stroke-width="2"></rect>

  
  <g stroke="#7a2e0a" stroke-width="1" opacity=".5">
    <line x1="0" y1="450" x2="600" y2="450"></line>
    <line x1="1000" y1="450" x2="1600" y2="450"></line>
  </g>

  
  <g>
    <line x1="0" y1="900" x2="600" y2="600" stroke="#ff2a18" stroke-width="3" opacity=".85"></line>
    <line x1="1600" y1="900" x2="1000" y2="600" stroke="#ff2a18" stroke-width="3" opacity=".85"></line>
    <line x1="100" y1="900" x2="640" y2="610" stroke="#ff2a18" stroke-width="2" opacity=".55"></line>
    <line x1="1500" y1="900" x2="960" y2="610" stroke="#ff2a18" stroke-width="2" opacity=".55"></line>
  </g>

  
  <g stroke="#ffb66a" stroke-width="2" opacity=".55">
    <line x1="0" y1="40" x2="600" y2="280"></line>
    <line x1="1600" y1="40" x2="1000" y2="280"></line>
  </g>
</svg>