<svg xmlns="http://www.w3.org/2000/svg" viewBox="0 0 1600 900" preserveAspectRatio="xMidYMax slice">
  
  <g fill="#1a0a05" stroke="#3a1408" stroke-width="1">
    
    <polygon points="760,420 840,420 870,560 730,560"></polygon>
    
    <polygon points="770,330 830,330 850,420 750,420"></polygon>
    
    <polygon points="735,440 710,445 670,600 690,605"></polygon>
    <polygon points="665,595 640,740 660,745 685,605"></polygon>
    
    <polygon points="865,440 890,445 930,360 915,352"></polygon>
    <polygon points="925,352 950,260 970,270 940,362"></polygon>
    <circle cx="960" cy="258" r="14"></circle>
    
    <polygon points="750,560 770,560 765,740 740,740"></polygon>
    <polygon points="830,560 850,560 855,740 835,740"></polygon>
    
    <circle cx="760" cy="560" r="8"></circle>
    <circle cx="840" cy="560" r="8"></circle>
    <circle cx="735" cy="440" r="8"></circle>
    <circle cx="865" cy="440" r="8"></circle>
    <circle cx="680" cy="600" r="6"></circle>
    <circle cx="920" cy="358" r="6"></circle>
  </g>
  
  <g>
    <circle cx="780" cy="370" r="6" fill="#ff1a0a">
      
    </circle>
    <circle cx="820" cy="370" r="6" fill="#ff1a0a">
      
    </circle>
    <circle cx="780" cy="370" r="12" fill="#ff1a0a" opacity=".25">
      
    </circle>
    <circle cx="820" cy="370" r="12" fill="#ff1a0a" opacity=".25">
      
    </circle>
  </g>
</svg>