<svg xmlns="http://www.w3.org/2000/svg" viewBox="0 0 1600 900" preserveAspectRatio="xMidYMid slice">
  
  <defs>
    <pattern id="dots" x="0" y="0" width="2" height="2" patternUnits="userSpaceOnUse">
      <rect width="2" height="2" fill="#080a06"></rect>
      <circle cx="1" cy="1" r=".3" fill="#1a4a1a" opacity=".7"></circle>
    </pattern>
  </defs>

  
  <g stroke="#3a6a30" stroke-width="1" fill="none" opacity=".7">
    <rect x="20" y="20" width="1560" height="860"></rect>
    <line x1="20" y1="42" x2="80" y2="42"></line>
    <line x1="42" y1="20" x2="42" y2="80"></line>
    <line x1="1520" y1="42" x2="1580" y2="42"></line>
    <line x1="1558" y1="20" x2="1558" y2="80"></line>
    <line x1="20" y1="858" x2="80" y2="858"></line>
    <line x1="42" y1="820" x2="42" y2="880"></line>
    <line x1="1520" y1="858" x2="1580" y2="858"></line>
    <line x1="1558" y1="820" x2="1558" y2="880"></line>
  </g>

  
  <g transform="translate(20,30)">
    
    <g font-family="ui-monospace, Menlo, monospace" font-size="7" fill="#a8d088" opacity=".75">
      
      <g>
        <rect x="0" y="0" width="50" height="22" stroke="#3a6a30" fill="none"></rect>
        <text x="3" y="9">DARKSTAR</text>
        <text x="3" y="18" fill="#dceabc">TRACK SET</text>
      </g>
      <g transform="translate(56,0)">
        <rect width="38" height="22" stroke="#3a6a30" fill="none"></rect>
        <text x="3" y="9">SYS STAT</text>
        <text x="3" y="18" fill="#dceabc">NOM</text>
      </g>
      <g transform="translate(98,0)">
        <rect width="46" height="22" stroke="#3a6a30" fill="none"></rect>
        <text x="3" y="9">192.103.1.4</text>
        <text x="3" y="18" fill="#dceabc">LINK A</text>
      </g>
      <g transform="translate(148,0)">
        <rect width="36" height="22" stroke="#3a6a30" fill="none"></rect>
        <text x="3" y="9">ALT</text>
        <text x="3" y="18" fill="#dceabc">38°</text>
      </g>
      <g transform="translate(188,0)">
        <rect width="44" height="22" stroke="#3a6a30" fill="none"></rect>
        <text x="3" y="9">HDG</text>
        <text x="3" y="18" fill="#dceabc">135°</text>
      </g>
      <g transform="translate(236,0)">
        <rect width="34" height="22" stroke="#3a6a30" fill="none"></rect>
        <text x="3" y="9">N 38°</text>
        <text x="3" y="18" fill="#dceabc">0.45</text>
      </g>
      <g transform="translate(274,0)">
        <rect width="50" height="22" stroke="#3a6a30" fill="none"></rect>
        <text x="3" y="9">SAT LINK</text>
        <text x="3" y="18" fill="#dceabc">06 / 12</text>
      </g>
      <g transform="translate(328,0)">
        <rect width="40" height="22" stroke="#3a6a30" fill="none"></rect>
        <text x="3" y="9">CHAN</text>
        <text x="3" y="18" fill="#dceabc">04A</text>
      </g>
      <g transform="translate(372,0)">
        <rect width="46" height="22" stroke="#3a6a30" fill="none"></rect>
        <text x="3" y="9">PWR DRAW</text>
        <text x="3" y="18" fill="#dceabc">68 KW</text>
      </g>
      <g transform="translate(422,0)">
        <rect width="38" height="22" stroke="#3a6a30" fill="none"></rect>
        <text x="3" y="9">SHIELD</text>
        <text x="3" y="18" fill="#dceabc">100</text>
      </g>
      <g transform="translate(464,0)">
        <rect width="48" height="22" stroke="#3a6a30" fill="none"></rect>
        <text x="3" y="9">CRYO HOLD</text>
        <text x="3" y="18" fill="#dceabc">2.5M</text>
      </g>
      <g transform="translate(516,0)">
        <rect width="42" height="22" stroke="#3a6a30" fill="none"></rect>
        <text x="3" y="9">02 SAT</text>
        <text x="3" y="18" fill="#dceabc">94%</text>
      </g>
      <g transform="translate(562,0)">
        <rect width="36" height="22" stroke="#3a6a30" fill="none"></rect>
        <text x="3" y="9">CO2</text>
        <text x="3" y="18" fill="#dceabc">0.04</text>
      </g>
      <g transform="translate(602,0)">
        <rect width="48" height="22" stroke="#3a6a30" fill="none"></rect>
        <text x="3" y="9">VEL kt</text>
        <text x="3" y="18" fill="#dceabc">6 706</text>
      </g>
      <g transform="translate(654,0)">
        <rect width="40" height="22" stroke="#3a6a30" fill="none"></rect>
        <text x="3" y="9">FUEL</text>
        <text x="3" y="18" fill="#dceabc">71</text>
      </g>
      <g transform="translate(698,0)">
        <rect width="44" height="22" stroke="#3a6a30" fill="none"></rect>
        <text x="3" y="9">RAM TEMP</text>
        <text x="3" y="18" fill="#dceabc">-12 °C</text>
      </g>
      <g transform="translate(746,0)">
        <rect width="42" height="22" stroke="#3a6a30" fill="none"></rect>
        <text x="3" y="9">EXT TEMP</text>
        <text x="3" y="18" fill="#dceabc">-271</text>
      </g>
      <g transform="translate(792,0)">
        <rect width="34" height="22" stroke="#3a6a30" fill="none"></rect>
        <text x="3" y="9">ETA</text>
        <text x="3" y="18" fill="#dceabc">8412</text>
      </g>
      <g transform="translate(830,0)">
        <rect width="46" height="22" stroke="#3a6a30" fill="none"></rect>
        <text x="3" y="9">VECTOR</text>
        <text x="3" y="18" fill="#dceabc">+0.18°</text>
      </g>
      <g transform="translate(880,0)">
        <rect width="38" height="22" stroke="#3a6a30" fill="none"></rect>
        <text x="3" y="9">FRAME</text>
        <text x="3" y="18" fill="#dceabc">12 / 87</text>
      </g>
      <g transform="translate(922,0)">
        <rect width="40" height="22" stroke="#3a6a30" fill="none"></rect>
        <text x="3" y="9">SYNC</text>
        <text x="3" y="18" fill="#dceabc">0.997</text>
      </g>
      <g transform="translate(966,0)">
        <rect width="48" height="22" stroke="#3a6a30" fill="none"></rect>
        <text x="3" y="9">PROHA-A</text>
        <text x="3" y="18" fill="#dceabc">LOCKED</text>
      </g>
      <g transform="translate(1018,0)">
        <rect width="48" height="22" stroke="#3a6a30" fill="none"></rect>
        <text x="3" y="9">PROHA-B</text>
        <text x="3" y="18" fill="#dceabc">SILENT</text>
      </g>
      <g transform="translate(1070,0)">
        <rect width="42" height="22" stroke="#3a6a30" fill="none"></rect>
        <text x="3" y="9">L SPRT</text>
        <text x="3" y="18" fill="#dceabc">61%</text>
      </g>
      <g transform="translate(1116,0)">
        <rect width="36" height="22" stroke="#3a6a30" fill="none"></rect>
        <text x="3" y="9">BAY 1</text>
        <text x="3" y="18" fill="#dceabc">OK</text>
      </g>
      <g transform="translate(1156,0)">
        <rect width="36" height="22" stroke="#3a6a30" fill="none"></rect>
        <text x="3" y="9">BAY 2</text>
        <text x="3" y="18" fill="#dceabc">OK</text>
      </g>
      <g transform="translate(1196,0)">
        <rect width="44" height="22" stroke="#3a6a30" fill="none"></rect>
        <text x="3" y="9">EXT SCAN</text>
        <text x="3" y="18" fill="#dceabc">CLEAR</text>
      </g>
      <g transform="translate(1244,0)">
        <rect width="40" height="22" stroke="#3a6a30" fill="none"></rect>
        <text x="3" y="9">A.U.</text>
        <text x="3" y="18" fill="#dceabc">0.018</text>
      </g>
      <g transform="translate(1288,0)">
        <rect width="42" height="22" stroke="#3a6a30" fill="none"></rect>
        <text x="3" y="9">DRIFT</text>
        <text x="3" y="18" fill="#dceabc">0.002</text>
      </g>
      <g transform="translate(1334,0)">
        <rect width="46" height="22" stroke="#3a6a30" fill="none"></rect>
        <text x="3" y="9">ARC SEC</text>
        <text x="3" y="18" fill="#dceabc">0.014</text>
      </g>
      <g transform="translate(1384,0)">
        <rect width="36" height="22" stroke="#3a6a30" fill="none"></rect>
        <text x="3" y="9">RNG</text>
        <text x="3" y="18" fill="#dceabc">∞</text>
      </g>
      <g transform="translate(1424,0)">
        <rect width="48" height="22" stroke="#3a6a30" fill="none"></rect>
        <text x="3" y="9">TEMP DLT</text>
        <text x="3" y="18" fill="#dceabc">+0.4</text>
      </g>
      <g transform="translate(1476,0)">
        <rect width="40" height="22" stroke="#3a6a30" fill="none"></rect>
        <text x="3" y="9">DECK 7</text>
        <text x="3" y="18" fill="#dceabc">SEAL</text>
      </g>
      <g transform="translate(1520,0)">
        <rect width="38" height="22" stroke="#3a6a30" fill="none"></rect>
        <text x="3" y="9">DECK 6</text>
        <text x="3" y="18" fill="#dceabc">SEAL</text>
      </g>
    </g>
  </g>

  
  <g transform="translate(40,80)" stroke="#2a4a22" fill="none">
    <rect width="220" height="500"></rect>
    <text x="6" y="14" fill="#a8d088" font-family="ui-monospace, Menlo, monospace" font-size="7">SCAN LOG · DECK 4-A</text>
    <line x1="0" y1="20" x2="220" y2="20"></line>
  </g>

  
  <g transform="translate(1340,80)" stroke="#3a6a30" fill="none" opacity=".7">
    <text x="6" y="-4" fill="#a8d088" font-family="ui-monospace, Menlo, monospace" font-size="8">VISUAL FEED</text>
    <g font-family="ui-monospace, Menlo, monospace" font-size="6" fill="#7aa068">
      <g><rect x="0" y="0" width="100" height="58"></rect><text x="4" y="9">FEED 01</text></g>
      <g><rect x="106" y="0" width="100" height="58"></rect><text x="110" y="9">FEED 02</text></g>
      <g><rect x="0" y="64" width="100" height="58"></rect><text x="4" y="73">FEED 03</text></g>
      <g><rect x="106" y="64" width="100" height="58"></rect><text x="110" y="73">FEED 04</text></g>
      <g><rect x="0" y="128" width="100" height="58"></rect><text x="4" y="137">FEED 05</text></g>
      <g><rect x="106" y="128" width="100" height="58"></rect><text x="110" y="137">FEED 06</text></g>
      <g><rect x="0" y="192" width="100" height="58"></rect><text x="4" y="201">FEED 07</text></g>
      <g><rect x="106" y="192" width="100" height="58"></rect><text x="110" y="201">FEED 08</text></g>
    </g>
  </g>

  
  <g transform="translate(40,720)">
    <g stroke="#3a6a30" fill="none">
      <rect width="220" height="140"></rect>
      <rect x="226" y="0" width="380" height="140"></rect>
      <rect x="612" y="0" width="240" height="140"></rect>
      <rect x="858" y="0" width="180" height="140"></rect>
      <rect x="1044" y="0" width="220" height="140"></rect>
      <rect x="1270" y="0" width="250" height="140"></rect>
    </g>
    <g font-family="ui-monospace, Menlo, monospace" font-size="8" fill="#a8d088">
      <text x="6" y="14">WARNING</text>
      <text x="232" y="14">LIFE SUPPORT WAVE</text>
      <text x="618" y="14">SECTOR DRAW</text>
      <text x="864" y="14">FRAME 12 / 87</text>
      <text x="1050" y="14">PLAN VIEW · ESF</text>
      <text x="1276" y="14">LEVEL DEPTH 03 — BOHEMOND 04A</text>
    </g>
    
    <rect x="6" y="22" width="80" height="14" fill="#a32018"></rect>
    <text x="10" y="32" font-family="ui-monospace, Menlo, monospace" font-size="7" fill="#fff">EXTERNAL HOST</text>
    
    <g stroke="#3a6a30" stroke-width="1" opacity=".7">
      <line x1="232" y1="48" x2="600" y2="48"></line>
      <line x1="232" y1="60" x2="600" y2="60"></line>
      <line x1="232" y1="72" x2="600" y2="72"></line>
      <line x1="232" y1="84" x2="600" y2="84"></line>
      <line x1="232" y1="96" x2="600" y2="96"></line>
      <line x1="232" y1="108" x2="600" y2="108"></line>
      <line x1="232" y1="120" x2="600" y2="120"></line>
    </g>
  </g>
</svg>