<svg xmlns="http://www.w3.org/2000/svg" viewBox="0 0 800 800" preserveAspectRatio="xMidYMid meet">
  
  <g fill="#3affaa">
    
    <circle cx="280" cy="220" r="1.6"></circle><circle cx="310" cy="212" r="1.6"></circle><circle cx="340" cy="208" r="1.6"></circle><circle cx="370" cy="206" r="1.6"></circle><circle cx="400" cy="205" r="1.6"></circle><circle cx="430" cy="206" r="1.6"></circle><circle cx="460" cy="208" r="1.6"></circle><circle cx="490" cy="212" r="1.6"></circle><circle cx="520" cy="220" r="1.6"></circle>
    <circle cx="260" cy="240" r="1.2"></circle><circle cx="295" cy="232" r="1.2"></circle><circle cx="325" cy="228" r="1.2"></circle><circle cx="360" cy="225" r="1.2"></circle><circle cx="400" cy="224" r="1.2"></circle><circle cx="440" cy="225" r="1.2"></circle><circle cx="475" cy="228" r="1.2"></circle><circle cx="505" cy="232" r="1.2"></circle><circle cx="540" cy="240" r="1.2"></circle>
    <circle cx="250" cy="270" r="1"></circle><circle cx="290" cy="260" r="1"></circle><circle cx="330" cy="255" r="1"></circle><circle cx="370" cy="252" r="1"></circle><circle cx="400" cy="251" r="1"></circle><circle cx="430" cy="252" r="1"></circle><circle cx="470" cy="255" r="1"></circle><circle cx="510" cy="260" r="1"></circle><circle cx="550" cy="270" r="1"></circle>

    
    <circle cx="280" cy="340" r="1.4"></circle><circle cx="300" cy="332" r="1.4"></circle><circle cx="325" cy="328" r="1.4"></circle><circle cx="350" cy="328" r="1.4"></circle><circle cx="375" cy="332" r="1.4"></circle>
    <circle cx="275" cy="360" r="1.2"></circle><circle cx="300" cy="355" r="1.2"></circle><circle cx="330" cy="353" r="1.2"></circle><circle cx="360" cy="355" r="1.2"></circle><circle cx="385" cy="360" r="1.2"></circle>
    <circle cx="275" cy="385" r="1.2"></circle><circle cx="300" cy="380" r="1.2"></circle><circle cx="330" cy="378" r="1.2"></circle><circle cx="360" cy="380" r="1.2"></circle><circle cx="385" cy="385" r="1.2"></circle>
    
    <circle cx="325" cy="355" r="5" fill="#f0ffe8"></circle>
    <circle cx="325" cy="355" r="14" fill="#3affaa" opacity=".3"></circle>

    
    <circle cx="425" cy="332" r="1.4"></circle><circle cx="450" cy="328" r="1.4"></circle><circle cx="475" cy="328" r="1.4"></circle><circle cx="500" cy="332" r="1.4"></circle><circle cx="520" cy="340" r="1.4"></circle>
    <circle cx="415" cy="360" r="1.2"></circle><circle cx="440" cy="355" r="1.2"></circle><circle cx="470" cy="353" r="1.2"></circle><circle cx="500" cy="355" r="1.2"></circle><circle cx="525" cy="360" r="1.2"></circle>
    <circle cx="415" cy="385" r="1.2"></circle><circle cx="440" cy="380" r="1.2"></circle><circle cx="470" cy="378" r="1.2"></circle><circle cx="500" cy="380" r="1.2"></circle><circle cx="525" cy="385" r="1.2"></circle>
    
    <circle cx="475" cy="355" r="5" fill="#f0ffe8"></circle>
    <circle cx="475" cy="355" r="14" fill="#3affaa" opacity=".3"></circle>

    
    <circle cx="400" cy="410" r="1"></circle><circle cx="395" cy="440" r="1"></circle><circle cx="400" cy="470" r="1"></circle><circle cx="405" cy="440" r="1"></circle>

    
    <circle cx="260" cy="440" r="1"></circle><circle cx="290" cy="450" r="1"></circle><circle cx="320" cy="460" r="1"></circle>
    <circle cx="480" cy="460" r="1"></circle><circle cx="510" cy="450" r="1"></circle><circle cx="540" cy="440" r="1"></circle>

    
    <circle cx="320" cy="540" r="1.4"></circle><circle cx="345" cy="540" r="1.4"></circle><circle cx="370" cy="540" r="1.4"></circle><circle cx="400" cy="540" r="1.4"></circle><circle cx="430" cy="540" r="1.4"></circle><circle cx="455" cy="540" r="1.4"></circle><circle cx="480" cy="540" r="1.4"></circle>

    
    <circle cx="300" cy="580" r="1"></circle><circle cx="335" cy="595" r="1"></circle><circle cx="370" cy="605" r="1"></circle><circle cx="400" cy="608" r="1"></circle><circle cx="430" cy="605" r="1"></circle><circle cx="465" cy="595" r="1"></circle><circle cx="500" cy="580" r="1"></circle>
    <circle cx="330" cy="620" r=".9"></circle><circle cx="370" cy="628" r=".9"></circle><circle cx="400" cy="630" r=".9"></circle><circle cx="430" cy="628" r=".9"></circle><circle cx="470" cy="620" r=".9"></circle>
  </g>

  
  <g fill="#3affaa" opacity=".55">
    <circle cx="200" cy="200" r=".8"></circle><circle cx="600" cy="210" r=".8"></circle><circle cx="220" cy="500" r=".8"></circle><circle cx="580" cy="490" r=".8"></circle><circle cx="180" cy="380" r=".8"></circle><circle cx="620" cy="370" r=".8"></circle><circle cx="240" cy="650" r=".8"></circle><circle cx="560" cy="640" r=".8"></circle><circle cx="400" cy="160" r=".8"></circle><circle cx="400" cy="680" r=".8"></circle>
    <circle cx="150" cy="300" r=".6"></circle><circle cx="650" cy="310" r=".6"></circle><circle cx="140" cy="450" r=".6"></circle><circle cx="660" cy="440" r=".6"></circle>
  </g>
</svg>