<svg xmlns="http://www.w3.org/2000/svg" viewBox="0 0 1600 900" preserveAspectRatio="xMidYMax slice">
  
  <g stroke="#1a2840" stroke-width="2" fill="none" opacity=".85">
    <path d="M 0 300 C 200 250, 300 350, 500 320 S 800 260, 1000 340 S 1300 380, 1600 320"></path>
    <path d="M 0 400 C 150 440, 350 380, 520 430 S 800 480, 1050 420 S 1350 460, 1600 420"></path>
    <path d="M 0 500 C 220 480, 400 550, 580 510 S 850 460, 1080 530 S 1350 570, 1600 510"></path>
    <path d="M 0 600 C 180 640, 380 580, 560 620 S 830 680, 1080 620 S 1350 660, 1600 610"></path>
    <path d="M 0 220 C 200 260, 340 200, 540 240 S 800 280, 1000 220 S 1300 180, 1600 240"></path>
    <path d="M 0 700 C 180 730, 340 680, 540 720 S 800 760, 1000 700 S 1300 680, 1600 720"></path>
  </g>
  <g stroke="#2a4068" stroke-width="1" fill="none" opacity=".55">
    <path d="M 100 0 C 120 200, 80 400, 140 600 S 110 800, 130 900"></path>
    <path d="M 380 0 C 400 180, 360 360, 420 560 S 390 780, 410 900"></path>
    <path d="M 720 0 C 740 220, 700 440, 760 620 S 730 820, 750 900"></path>
    <path d="M 1080 0 C 1100 200, 1060 400, 1120 600 S 1090 800, 1110 900"></path>
    <path d="M 1420 0 C 1440 200, 1400 400, 1460 600 S 1430 800, 1450 900"></path>
  </g>
  
  <rect x="560" y="120" width="480" height="320" fill="#02020a"></rect>
  <rect x="560" y="120" width="480" height="320" fill="none" stroke="#4a6a96" stroke-width="2"></rect>
  
  <g fill="#c8d8f0">
    <circle cx="620" cy="180" r="1"></circle>
    <circle cx="680" cy="220" r="1.5"></circle>
    <circle cx="740" cy="160" r="1"></circle>
    <circle cx="810" cy="200" r="1"></circle>
    <circle cx="870" cy="240" r="1.5"></circle>
    <circle cx="920" cy="180" r="1"></circle>
    <circle cx="980" cy="220" r="1"></circle>
    <circle cx="660" cy="280" r="1"></circle>
    <circle cx="740" cy="320" r="1"></circle>
    <circle cx="820" cy="300" r="1.5"></circle>
    <circle cx="900" cy="340" r="1"></circle>
    <circle cx="970" cy="290" r="1"></circle>
    <circle cx="620" cy="380" r="1"></circle>
    <circle cx="720" cy="400" r="1"></circle>
    <circle cx="820" cy="400" r="1"></circle>
    <circle cx="920" cy="395" r="1.5"></circle>
  </g>
  
  <polygon points="560,440 600,380 1000,380 1040,440" fill="#1a2840" opacity=".6"></polygon>
</svg>