<svg xmlns="http://www.w3.org/2000/svg" viewBox="0 0 1600 900" preserveAspectRatio="xMidYMax slice">
  
  <g fill="#0a0f1c" stroke="#2a3a5a" stroke-width="1.5">
    <rect x="120" y="280" width="220" height="560" rx="6"></rect>
    <rect x="1260" y="280" width="220" height="560" rx="6"></rect>
  </g>
  
  <g fill="none" stroke="#3a5078" stroke-width="1">
    <line x1="135" y1="320" x2="325" y2="320"></line>
    <line x1="135" y1="360" x2="325" y2="360"></line>
    <line x1="135" y1="400" x2="325" y2="400"></line>
    <line x1="135" y1="440" x2="325" y2="440"></line>
    <line x1="135" y1="480" x2="325" y2="480"></line>
    <line x1="135" y1="520" x2="325" y2="520"></line>
    <line x1="135" y1="560" x2="325" y2="560"></line>
    <line x1="135" y1="600" x2="325" y2="600"></line>
    <line x1="135" y1="640" x2="325" y2="640"></line>
    <line x1="135" y1="680" x2="325" y2="680"></line>
    <line x1="135" y1="720" x2="325" y2="720"></line>
    <line x1="135" y1="760" x2="325" y2="760"></line>
    <line x1="135" y1="800" x2="325" y2="800"></line>
  </g>
  
  <g fill="none" stroke="#3a5078" stroke-width="1">
    <line x1="1275" y1="320" x2="1465" y2="320"></line>
    <line x1="1275" y1="360" x2="1465" y2="360"></line>
    <line x1="1275" y1="400" x2="1465" y2="400"></line>
    <line x1="1275" y1="440" x2="1465" y2="440"></line>
    <line x1="1275" y1="480" x2="1465" y2="480"></line>
    <line x1="1275" y1="520" x2="1465" y2="520"></line>
    <line x1="1275" y1="560" x2="1465" y2="560"></line>
    <line x1="1275" y1="600" x2="1465" y2="600"></line>
    <line x1="1275" y1="640" x2="1465" y2="640"></line>
    <line x1="1275" y1="680" x2="1465" y2="680"></line>
    <line x1="1275" y1="720" x2="1465" y2="720"></line>
    <line x1="1275" y1="760" x2="1465" y2="760"></line>
    <line x1="1275" y1="800" x2="1465" y2="800"></line>
  </g>
  
  <g>
    <circle cx="160" cy="350" r="2" fill="#22ffaa" opacity=".8"></circle>
    <circle cx="180" cy="430" r="2" fill="#22ffaa" opacity=".8"></circle>
    <circle cx="160" cy="510" r="2" fill="#ff5050" opacity=".8"></circle>
    <circle cx="180" cy="590" r="2" fill="#22ffaa" opacity=".8"></circle>
    <circle cx="160" cy="670" r="2" fill="#22ffaa" opacity=".8"></circle>
    <circle cx="180" cy="750" r="2" fill="#22ffaa" opacity=".8"></circle>

    <circle cx="1300" cy="350" r="2" fill="#22ffaa" opacity=".8"></circle>
    <circle cx="1320" cy="430" r="2" fill="#ff5050" opacity=".8"></circle>
    <circle cx="1300" cy="510" r="2" fill="#22ffaa" opacity=".8"></circle>
    <circle cx="1320" cy="590" r="2" fill="#22ffaa" opacity=".8"></circle>
    <circle cx="1300" cy="670" r="2" fill="#22ffaa" opacity=".8"></circle>
    <circle cx="1320" cy="750" r="2" fill="#ff5050" opacity=".8"></circle>
  </g>
</svg>