<svg xmlns="http://www.w3.org/2000/svg" viewBox="0 0 1600 900" preserveAspectRatio="xMidYMid slice">
  
  <g fill="#cce8ff">
    <circle cx="60" cy="80" r="1" opacity=".7"></circle>
    <circle cx="180" cy="180" r=".7" opacity=".55"></circle>
    <circle cx="320" cy="60" r="1.2" opacity=".8"></circle>
    <circle cx="460" cy="120" r=".8" opacity=".5"></circle>
    <circle cx="620" cy="40" r="1" opacity=".75"></circle>
    <circle cx="780" cy="200" r=".6" opacity=".5"></circle>
    <circle cx="920" cy="80" r="1.3" opacity=".85"></circle>
    <circle cx="1080" cy="140" r=".7" opacity=".55"></circle>
    <circle cx="1240" cy="60" r="1" opacity=".7"></circle>
    <circle cx="1400" cy="220" r=".8" opacity=".6"></circle>
    <circle cx="1540" cy="100" r="1" opacity=".7"></circle>
    <circle cx="80" cy="780" r="1" opacity=".65"></circle>
    <circle cx="240" cy="840" r=".7" opacity=".5"></circle>
    <circle cx="420" cy="800" r="1" opacity=".6"></circle>
    <circle cx="600" cy="860" r=".8" opacity=".55"></circle>
    <circle cx="800" cy="820" r="1.2" opacity=".7"></circle>
    <circle cx="1000" cy="780" r=".7" opacity=".55"></circle>
    <circle cx="1200" cy="840" r="1" opacity=".6"></circle>
    <circle cx="1400" cy="800" r=".8" opacity=".55"></circle>
    <circle cx="1560" cy="860" r="1" opacity=".65"></circle>
  </g>
</svg>